<svg version="1.1" viewBox="0.0 0.0 434.6456692913386 188.9763779527559" fill="none" stroke="none" stroke-linecap="square" stroke-miterlimit="10" xmlns:xlink="http://www.w3.org/1999/xlink" xmlns="http://www.w3.org/2000/svg"><clipPath id="p.0"><path d="m0 0l434.64566 0l0 188.97638l-434.64566 0l0 -188.97638z" clip-rule="nonzero"/></clipPath><g clip-path="url(#p.0)"><path fill="#ffffff" d="m0 0l434.64566 0l0 188.97638l-434.64566 0z" fill-rule="evenodd"/><path fill="#4285f4" d="m171.07086 78.8189l0 0c0 -23.735203 19.24118 -42.976383 42.97638 -42.976383l0 0c11.398041 0 22.329254 4.5278587 30.388885 12.58749c8.059647 8.059635 12.587494 18.990845 12.587494 30.388893l0 0c0 23.735191 -19.24118 42.97637 -42.97638 42.97637l0 0c-23.735199 0 -42.97638 -19.24118 -42.97638 -42.97637z" fill-rule="evenodd"/><path stroke="#4285f4" stroke-width="1.0" stroke-linejoin="round" stroke-linecap="butt" d="m171.07086 78.8189l0 0c0 -23.735203 19.24118 -42.976383 42.97638 -42.976383l0 0c11.398041 0 22.329254 4.5278587 30.388885 12.58749c8.059647 8.059635 12.587494 18.990845 12.587494 30.388893l0 0c0 23.735191 -19.24118 42.97637 -42.97638 42.97637l0 0c-23.735199 0 -42.97638 -19.24118 -42.97638 -42.97637z" fill-rule="evenodd"/><path fill="#000000" fill-opacity="0.0" d="m214.04724 35.842518l0 86.58267" fill-rule="evenodd"/><path stroke="#000000" stroke-width="2.0" stroke-linejoin="round" stroke-linecap="butt" stroke-dasharray="16.0,6.0" d="m214.04724 35.842518l0 86.58267" fill-rule="evenodd"/><path fill="#000000" fill-opacity="0.0" d="m171.07086 50.047245l42.992126 0l0 51.716534l-42.992126 0z" fill-rule="evenodd"/><path fill="#000000" d="m181.88336 65.24099l16.09375 0l0 2.140625l-12.859375 0l7.90625 10.078125l-8.453125 10.703125l13.546875 0l0 2.09375l-16.453125 0l0 -2.4375l8.0625 -10.25l-7.84375 -10.046875l0 -2.28125z" fill-rule="nonzero"/><path fill="#000000" fill-opacity="0.0" d="m214.04724 50.047245l42.992126 0l0 58.17323l-42.992126 0z" fill-rule="evenodd"/><path fill="#000000" d="m234.71912 89.76724l0 -14.40625l-2.484375 0l0 -2.1875l2.484375 0l0 -1.765625q0 -1.671875 0.296875 -2.484375q0.40625 -1.09375 1.421875 -1.765625q1.03125 -0.6875 2.875 -0.6875q1.1875 0 2.625 0.28125l-0.421875 2.453125q-0.875 -0.15625 -1.65625 -0.15625q-1.28125 0 -1.8125 0.546875q-0.53125 0.546875 -0.53125 2.046875l0 1.53125l3.234375 0l0 2.1875l-3.234375 0l0 14.40625l-2.796875 0z" fill-rule="nonzero"/><path fill="#000000" fill-opacity="0.0" d="m171.07086 75.90551l-115.81102 0" fill-rule="evenodd"/><path stroke="#4285f4" stroke-width="3.0" stroke-linejoin="round" stroke-linecap="butt" d="m171.07086 75.90551l-115.81102 0" fill-rule="evenodd"/><path fill="#000000" fill-opacity="0.0" d="m171.07086 75.90551l-115.653534 30.992126" fill-rule="evenodd"/><path stroke="#4285f4" stroke-width="3.0" stroke-linejoin="round" stroke-linecap="butt" d="m171.07086 75.90551l-115.653534 30.992126" fill-rule="evenodd"/><path fill="#000000" fill-opacity="0.0" d="m171.07086 75.90551l-115.779526 -31.02362" fill-rule="evenodd"/><path stroke="#4285f4" stroke-width="3.0" stroke-linejoin="round" stroke-linecap="butt" d="m171.07086 75.90551l-115.779526 -31.02362" fill-rule="evenodd"/><path fill="#000000" fill-opacity="0.0" d="m16.141733 26.097113l39.27559 0l0 35.55905l-39.27559 0z" fill-rule="evenodd"/><path fill="#000000" d="m26.391733 47.897114l0 -9.546875l1.25 0l0 9.546875l-1.25 0zm3.3279877 0l0 -6.90625l1.0625 0l0 0.984375q0.75 -1.140625 2.187498 -1.140625q0.625 0 1.15625 0.21875q0.53125 0.21875 0.78125 0.59375q0.265625 0.359375 0.375 0.859375q0.0625 0.328125 0.0625 1.140625l0 4.25l-1.171875 0l0 -4.203125q0 -0.71875 -0.140625 -1.0625q-0.140625 -0.359375 -0.484375 -0.5625q-0.34375 -0.21875 -0.8125 -0.21875q-0.7499981 0 -1.2968731 0.46875q-0.546875 0.46875 -0.546875 1.796875l0 3.78125l-1.171875 0z" fill-rule="nonzero"/><path fill="#000000" d="m39.569695 52.897114l-0.78125 0l0 -4.96875q-0.28125 0.265625 -0.75 0.53125q-0.453125 0.265625 -0.8125 0.40625l0 -0.75q0.65625 -0.3125 1.140625 -0.75q0.484375 -0.4375 0.6875 -0.84375l0.515625 0l0 6.375z" fill-rule="nonzero"/><path fill="#000000" fill-opacity="0.0" d="m16.141733 55.94488l39.27559 0l0 35.559055l-39.27559 0z" fill-rule="evenodd"/><path fill="#000000" d="m26.391733 77.74488l0 -9.546875l1.25 0l0 9.546875l-1.25 0zm3.3279877 0l0 -6.90625l1.0625 0l0 0.984375q0.75 -1.140625 2.187498 -1.140625q0.625 0 1.15625 0.21875q0.53125 0.21875 0.78125 0.59375q0.265625 0.359375 0.375 0.859375q0.0625 0.328125 0.0625 1.140625l0 4.25l-1.171875 0l0 -4.203125q0 -0.71875 -0.140625 -1.0625q-0.140625 -0.359375 -0.484375 -0.5625q-0.34375 -0.21875 -0.8125 -0.21875q-0.7499981 0 -1.2968731 0.46875q-0.546875 0.46875 -0.546875 1.796875l0 3.78125l-1.171875 0z" fill-rule="nonzero"/><path fill="#000000" d="m40.725945 81.99488l0 0.75l-4.203125 0q0 -0.28125 0.09375 -0.546875q0.15625 -0.421875 0.5 -0.828125q0.359375 -0.421875 1.03125 -0.96875q1.03125 -0.859375 1.390625 -1.34375q0.375 -0.5 0.375 -0.9375q0 -0.46875 -0.328125 -0.78125q-0.328125 -0.328125 -0.859375 -0.328125q-0.578125 0 -0.921875 0.34375q-0.328125 0.328125 -0.328125 0.9375l-0.796875 -0.09375q0.078125 -0.890625 0.609375 -1.359375q0.546875 -0.46875 1.453125 -0.46875q0.90625 0 1.4375 0.515625q0.53125 0.5 0.53125 1.25q0 0.375 -0.15625 0.75q-0.15625 0.359375 -0.515625 0.765625q-0.359375 0.40625 -1.203125 1.125q-0.703125 0.59375 -0.90625 0.796875q-0.1875 0.203125 -0.3125 0.421875l3.109375 0z" fill-rule="nonzero"/><path fill="#000000" fill-opacity="0.0" d="m16.141733 86.86614l39.27559 0l0 35.55905l-39.27559 0z" fill-rule="evenodd"/><path fill="#000000" d="m26.391733 108.66614l0 -9.546875l1.25 0l0 9.546875l-1.25 0zm3.3279877 0l0 -6.90625l1.0625 0l0 0.984375q0.75 -1.140625 2.187498 -1.140625q0.625 0 1.15625 0.21875q0.53125 0.21875 0.78125 0.59375q0.265625 0.359375 0.375 0.859375q0.0625 0.328125 0.0625 1.140625l0 4.25l-1.171875 0l0 -4.203125q0 -0.71875 -0.140625 -1.0625q-0.140625 -0.359375 -0.484375 -0.5625q-0.34375 -0.21875 -0.8125 -0.21875q-0.7499981 0 -1.2968731 0.46875q-0.546875 0.46875 -0.546875 1.796875l0 3.78125l-1.171875 0z" fill-rule="nonzero"/><path fill="#000000" d="m36.319695 113.66614l1.6875 -2.390625l-1.5625 -2.21875l0.984375 0l0.703125 1.09375q0.203125 0.296875 0.3125 0.515625q0.203125 -0.296875 0.359375 -0.515625l0.765625 -1.09375l0.9375 0l-1.59375 2.171875l1.71875 2.4375l-0.953125 0l-0.953125 -1.4375l-0.25 -0.375l-1.203125 1.8125l-0.953125 0z" fill-rule="nonzero"/><path fill="#4285f4" d="m55.259842 86.42519l0 0c0 -1.3306961 1.0787468 -2.4094467 2.4094505 -2.4094467l0 0c0.6390228 0 1.2518768 0.25385284 1.7037354 0.70571136c0.45186234 0.45185852 0.70571136 1.0647125 0.70571136 1.7037354l0 0c0 1.3307037 -1.0787468 2.4094543 -2.4094467 2.4094543l0 0c-1.3307037 0 -2.4094505 -1.0787506 -2.4094505 -2.4094543z" fill-rule="evenodd"/><path stroke="#4285f4" stroke-width="1.0" stroke-linejoin="round" stroke-linecap="butt" d="m55.259842 86.42519l0 0c0 -1.3306961 1.0787468 -2.4094467 2.4094505 -2.4094467l0 0c0.6390228 0 1.2518768 0.25385284 1.7037354 0.70571136c0.45186234 0.45185852 0.70571136 1.0647125 0.70571136 1.7037354l0 0c0 1.3307037 -1.0787468 2.4094543 -2.4094467 2.4094543l0 0c-1.3307037 0 -2.4094505 -1.0787506 -2.4094505 -2.4094543z" fill-rule="evenodd"/><path fill="#4285f4" d="m55.259842 96.36483l0 0c0 -1.3307037 1.0787468 -2.4094467 2.4094505 -2.4094467l0 0c0.6390228 0 1.2518768 0.25385284 1.7037354 0.70571136c0.45186234 0.45185852 0.70571136 1.0647125 0.70571136 1.7037354l0 0c0 1.3307037 -1.0787468 2.4094467 -2.4094467 2.4094467l0 0c-1.3307037 0 -2.4094505 -1.078743 -2.4094505 -2.4094467z" fill-rule="evenodd"/><path stroke="#4285f4" stroke-width="1.0" stroke-linejoin="round" stroke-linecap="butt" d="m55.259842 96.36483l0 0c0 -1.3307037 1.0787468 -2.4094467 2.4094505 -2.4094467l0 0c0.6390228 0 1.2518768 0.25385284 1.7037354 0.70571136c0.45186234 0.45185852 0.70571136 1.0647125 0.70571136 1.7037354l0 0c0 1.3307037 -1.0787468 2.4094467 -2.4094467 2.4094467l0 0c-1.3307037 0 -2.4094505 -1.078743 -2.4094505 -2.4094467z" fill-rule="evenodd"/><path fill="#000000" fill-opacity="0.0" d="m214.04724 121.79527l0 19.055115" fill-rule="evenodd"/><path stroke="#4285f4" stroke-width="3.0" stroke-linejoin="round" stroke-linecap="butt" d="m214.04724 121.79527l0 19.055115" fill-rule="evenodd"/><path fill="#000000" fill-opacity="0.0" d="m188.58267 140.85039l50.92914 0l0 35.559067l-50.92914 0z" fill-rule="evenodd"/><path fill="#000000" d="m198.55142 162.65039l0 -9.546875l3.59375 0q1.09375 0 1.75 0.296875q0.65625 0.28125 1.03125 0.890625q0.375 0.609375 0.375 1.265625q0 0.609375 -0.34375 1.15625q-0.328125 0.53125 -0.984375 0.859375q0.859375 0.25 1.328125 0.875q0.46875 0.609375 0.46875 1.4375q0 0.671875 -0.296875 1.25q-0.28125 0.578125 -0.703125 0.890625q-0.40625 0.3125 -1.03125 0.46875q-0.625 0.15625 -1.546875 0.15625l-3.640625 0zm1.265625 -5.53125l2.0625 0q0.84375 0 1.203125 -0.109375q0.484375 -0.140625 0.71875 -0.46875q0.25 -0.34375 0.25 -0.84375q0 -0.46875 -0.234375 -0.828125q-0.21875 -0.359375 -0.640625 -0.5q-0.421875 -0.140625 -1.453125 -0.140625l-1.90625 0l0 2.890625zm0 4.40625l2.375 0q0.609375 0 0.859375 -0.046875q0.4375 -0.078125 0.734375 -0.25q0.296875 -0.1875 0.484375 -0.53125q0.1875 -0.359375 0.1875 -0.8125q0 -0.53125 -0.28125 -0.921875q-0.265625 -0.40625 -0.75 -0.5625q-0.484375 -0.15625 -1.40625 -0.15625l-2.203125 0l0 3.28125zm7.5460052 -7.0625l0 -1.359375l1.171875 0l0 1.359375l-1.171875 0zm0 8.1875l0 -6.90625l1.171875 0l0 6.90625l-1.171875 0zm7.46109 -0.859375q-0.65625 0.5625 -1.265625 0.796875q-0.59375 0.21875 -1.28125 0.21875q-1.140625 0 -1.75 -0.546875q-0.609375 -0.5625 -0.609375 -1.4375q0 -0.5 0.21875 -0.921875q0.234375 -0.421875 0.609375 -0.671875q0.375 -0.25 0.84375 -0.390625q0.34375 -0.078125 1.046875 -0.171875q1.421875 -0.171875 2.09375 -0.40625q0 -0.234375 0 -0.296875q0 -0.71875 -0.328125 -1.015625q-0.453125 -0.390625 -1.34375 -0.390625q-0.8125 0 -1.21875 0.296875q-0.390625 0.28125 -0.578125 1.015625l-1.140625 -0.15625q0.15625 -0.734375 0.515625 -1.1875q0.359375 -0.453125 1.03125 -0.6875q0.671875 -0.25 1.5625 -0.25q0.890625 0 1.4375 0.203125q0.5625 0.203125 0.8125 0.53125q0.265625 0.3125 0.375 0.796875q0.046875 0.296875 0.046875 1.078125l0 1.5625q0 1.625 0.078125 2.0625q0.078125 0.4375 0.296875 0.828125l-1.21875 0q-0.1875 -0.359375 -0.234375 -0.859375zm-0.09375 -2.609375q-0.640625 0.265625 -1.921875 0.4375q-0.71875 0.109375 -1.015625 0.25q-0.296875 0.125 -0.46875 0.375q-0.15625 0.25 -0.15625 0.546875q0 0.46875 0.34375 0.78125q0.359375 0.3125 1.046875 0.3125q0.671875 0 1.203125 -0.296875q0.53125 -0.296875 0.78125 -0.8125q0.1875 -0.390625 0.1875 -1.171875l0 -0.421875zm2.5218506 1.40625l1.15625 -0.1875q0.109375 0.703125 0.546875 1.078125q0.453125 0.359375 1.25 0.359375q0.8125 0 1.203125 -0.328125q0.390625 -0.328125 0.390625 -0.765625q0 -0.390625 -0.359375 -0.625q-0.234375 -0.15625 -1.1875 -0.390625q-1.296875 -0.328125 -1.796875 -0.5625q-0.484375 -0.25 -0.75 -0.65625q-0.25 -0.421875 -0.25 -0.9375q0 -0.453125 0.203125 -0.84375q0.21875 -0.40625 0.578125 -0.671875q0.28125 -0.1875 0.75 -0.328125q0.46875 -0.140625 1.015625 -0.140625q0.8125 0 1.421875 0.234375q0.609375 0.234375 0.90625 0.640625q0.296875 0.390625 0.40625 1.0625l-1.140625 0.15625q-0.078125 -0.53125 -0.453125 -0.828125q-0.375 -0.3125 -1.0625 -0.3125q-0.8125 0 -1.15625 0.265625q-0.34375 0.265625 -0.34375 0.625q0 0.234375 0.140625 0.421875q0.15625 0.1875 0.453125 0.3125q0.171875 0.0625 1.03125 0.296875q1.25 0.328125 1.734375 0.546875q0.5 0.203125 0.78125 0.609375q0.28125 0.40625 0.28125 1.0q0 0.59375 -0.34375 1.109375q-0.34375 0.515625 -1.0 0.796875q-0.640625 0.28125 -1.453125 0.28125q-1.34375 0 -2.046875 -0.5625q-0.703125 -0.5625 -0.90625 -1.65625z" fill-rule="nonzero"/><path fill="#000000" fill-opacity="0.0" d="m257.03937 79.13386l59.874023 -0.25196838" fill-rule="evenodd"/><path stroke="#4285f4" stroke-width="3.0" stroke-linejoin="round" stroke-linecap="butt" d="m257.03937 79.13386l59.874023 -0.25196838" fill-rule="evenodd"/><path fill="#000000" fill-opacity="0.0" d="m316.90552 78.89501l51.118103 0" fill-rule="evenodd"/><path stroke="#4285f4" stroke-width="3.0" stroke-linejoin="round" stroke-linecap="butt" d="m316.90552 78.89501l51.118103 0" fill-rule="evenodd"/><path fill="#000000" fill-opacity="0.0" d="m316.90552 78.89501l50.48819 -29.322834" fill-rule="evenodd"/><path stroke="#4285f4" stroke-width="3.0" stroke-linejoin="round" stroke-linecap="butt" d="m316.90552 78.89501l50.48819 -29.322834" fill-rule="evenodd"/><path fill="#000000" fill-opacity="0.0" d="m316.6404 78.54855l50.897644 29.385826" fill-rule="evenodd"/><path stroke="#4285f4" stroke-width="3.0" stroke-linejoin="round" stroke-linecap="butt" d="m316.6404 78.54855l50.897644 29.385826" fill-rule="evenodd"/><path fill="#000000" fill-opacity="0.0" d="m368.01575 28.27559l50.48819 0l0 35.55905l-50.48819 0z" fill-rule="evenodd"/><path fill="#000000" d="m377.45325 46.622463q0 -1.921875 1.078125 -2.84375q0.890625 -0.765625 2.171875 -0.765625q1.421875 0 2.328125 0.9375q0.90625 0.921875 0.90625 2.578125q0 1.328125 -0.40625 2.09375q-0.390625 0.765625 -1.15625 1.1875q-0.765625 0.421875 -1.671875 0.421875q-1.453125 0 -2.359375 -0.921875q-0.890625 -0.9375 -0.890625 -2.6875zm1.203125 0q0 1.328125 0.578125 1.984375q0.59375 0.65625 1.46875 0.65625q0.875 0 1.453125 -0.65625q0.578125 -0.671875 0.578125 -2.03125q0 -1.28125 -0.59375 -1.9375q-0.578125 -0.65625 -1.4375 -0.65625q-0.875 0 -1.46875 0.65625q-0.578125 0.65625 -0.578125 1.984375zm11.178101 3.453125l0 -1.015625q-0.8125 1.171875 -2.1875 1.171875q-0.609375 0 -1.140625 -0.234375q-0.53125 -0.234375 -0.796875 -0.578125q-0.25 -0.359375 -0.359375 -0.875q-0.0625 -0.34375 -0.0625 -1.09375l0 -4.28125l1.171875 0l0 3.828125q0 0.921875 0.0625 1.234375q0.109375 0.46875 0.46875 0.734375q0.359375 0.25 0.890625 0.25q0.515625 0 0.984375 -0.265625q0.46875 -0.265625 0.65625 -0.734375q0.1875 -0.46875 0.1875 -1.34375l0 -3.703125l1.171875 0l0 6.90625l-1.046875 0zm5.4437256 -1.046875l0.171875 1.03125q-0.5 0.109375 -0.890625 0.109375q-0.640625 0 -1.0 -0.203125q-0.34375 -0.203125 -0.484375 -0.53125q-0.140625 -0.328125 -0.140625 -1.390625l0 -3.96875l-0.859375 0l0 -0.90625l0.859375 0l0 -1.71875l1.171875 -0.703125l0 2.421875l1.171875 0l0 0.90625l-1.171875 0l0 4.046875q0 0.5 0.046875 0.640625q0.0625 0.140625 0.203125 0.234375q0.140625 0.078125 0.40625 0.078125q0.203125 0 0.515625 -0.046875z" fill-rule="nonzero"/><path fill="#000000" d="m398.8562 55.07559l-0.78125 0l0 -4.96875q-0.28125 0.265625 -0.75 0.53125q-0.453125 0.265625 -0.8125 0.40625l0 -0.75q0.65625 -0.3125 1.140625 -0.75q0.484375 -0.4375 0.6875 -0.84375l0.515625 0l0 6.375z" fill-rule="nonzero"/><path fill="#000000" fill-opacity="0.0" d="m368.01575 58.125984l50.48819 0l0 35.55905l-50.48819 0z" fill-rule="evenodd"/><path fill="#000000" d="m377.45325 76.47286q0 -1.921875 1.078125 -2.84375q0.890625 -0.765625 2.171875 -0.765625q1.421875 0 2.328125 0.9375q0.90625 0.921875 0.90625 2.578125q0 1.328125 -0.40625 2.09375q-0.390625 0.765625 -1.15625 1.1875q-0.765625 0.421875 -1.671875 0.421875q-1.453125 0 -2.359375 -0.921875q-0.890625 -0.9375 -0.890625 -2.6875zm1.203125 0q0 1.328125 0.578125 1.984375q0.59375 0.65625 1.46875 0.65625q0.875 0 1.453125 -0.65625q0.578125 -0.671875 0.578125 -2.03125q0 -1.28125 -0.59375 -1.9375q-0.578125 -0.65625 -1.4375 -0.65625q-0.875 0 -1.46875 0.65625q-0.578125 0.65625 -0.578125 1.984375zm11.178101 3.453125l0 -1.015625q-0.8125 1.171875 -2.1875 1.171875q-0.609375 0 -1.140625 -0.234375q-0.53125 -0.234375 -0.796875 -0.578125q-0.25 -0.359375 -0.359375 -0.875q-0.0625 -0.34375 -0.0625 -1.09375l0 -4.28125l1.171875 0l0 3.828125q0 0.921875 0.0625 1.234375q0.109375 0.46875 0.46875 0.734375q0.359375 0.25 0.890625 0.25q0.515625 0 0.984375 -0.265625q0.46875 -0.265625 0.65625 -0.734375q0.1875 -0.46875 0.1875 -1.34375l0 -3.703125l1.171875 0l0 6.90625l-1.046875 0zm5.4437256 -1.046875l0.171875 1.03125q-0.5 0.109375 -0.890625 0.109375q-0.640625 0 -1.0 -0.203125q-0.34375 -0.203125 -0.484375 -0.53125q-0.140625 -0.328125 -0.140625 -1.390625l0 -3.96875l-0.859375 0l0 -0.90625l0.859375 0l0 -1.71875l1.171875 -0.703125l0 2.421875l1.171875 0l0 0.90625l-1.171875 0l0 4.046875q0 0.5 0.046875 0.640625q0.0625 0.140625 0.203125 0.234375q0.140625 0.078125 0.40625 0.078125q0.203125 0 0.515625 -0.046875z" fill-rule="nonzero"/><path fill="#000000" d="m400.01245 84.17599l0 0.75l-4.203125 0q0 -0.28125 0.09375 -0.546875q0.15625 -0.421875 0.5 -0.828125q0.359375 -0.421875 1.03125 -0.96875q1.03125 -0.859375 1.390625 -1.34375q0.375 -0.5 0.375 -0.9375q0 -0.46875 -0.328125 -0.78125q-0.328125 -0.328125 -0.859375 -0.328125q-0.578125 0 -0.921875 0.34375q-0.328125 0.328125 -0.328125 0.9375l-0.796875 -0.09375q0.078125 -0.890625 0.609375 -1.359375q0.546875 -0.46875 1.453125 -0.46875q0.90625 0 1.4375 0.515625q0.53125 0.5 0.53125 1.25q0 0.375 -0.15625 0.75q-0.15625 0.359375 -0.515625 0.765625q-0.359375 0.40625 -1.203125 1.125q-0.703125 0.59375 -0.90625 0.796875q-0.1875 0.203125 -0.3125 0.421875l3.109375 0z" fill-rule="nonzero"/><path fill="#000000" fill-opacity="0.0" d="m368.01575 86.23622l50.48819 0l0 35.55905l-50.48819 0z" fill-rule="evenodd"/><path fill="#000000" d="m377.45325 104.58309q0 -1.921875 1.078125 -2.84375q0.890625 -0.765625 2.171875 -0.765625q1.421875 0 2.328125 0.9375q0.90625 0.921875 0.90625 2.578125q0 1.328125 -0.40625 2.09375q-0.390625 0.765625 -1.15625 1.1875q-0.765625 0.421875 -1.671875 0.421875q-1.453125 0 -2.359375 -0.921875q-0.890625 -0.9375 -0.890625 -2.6875zm1.203125 0q0 1.328125 0.578125 1.984375q0.59375 0.65625 1.46875 0.65625q0.875 0 1.453125 -0.65625q0.578125 -0.671875 0.578125 -2.03125q0 -1.28125 -0.59375 -1.9375q-0.578125 -0.65625 -1.4375 -0.65625q-0.875 0 -1.46875 0.65625q-0.578125 0.65625 -0.578125 1.984375zm11.178101 3.453125l0 -1.015625q-0.8125 1.171875 -2.1875 1.171875q-0.609375 0 -1.140625 -0.234375q-0.53125 -0.234375 -0.796875 -0.578125q-0.25 -0.359375 -0.359375 -0.875q-0.0625 -0.34375 -0.0625 -1.09375l0 -4.28125l1.171875 0l0 3.828125q0 0.921875 0.0625 1.234375q0.109375 0.46875 0.46875 0.734375q0.359375 0.25 0.890625 0.25q0.515625 0 0.984375 -0.265625q0.46875 -0.265625 0.65625 -0.734375q0.1875 -0.46875 0.1875 -1.34375l0 -3.703125l1.171875 0l0 6.90625l-1.046875 0zm5.4437256 -1.046875l0.171875 1.03125q-0.5 0.109375 -0.890625 0.109375q-0.640625 0 -1.0 -0.203125q-0.34375 -0.203125 -0.484375 -0.53125q-0.140625 -0.328125 -0.140625 -1.390625l0 -3.96875l-0.859375 0l0 -0.90625l0.859375 0l0 -1.71875l1.171875 -0.703125l0 2.421875l1.171875 0l0 0.90625l-1.171875 0l0 4.046875q0 0.5 0.046875 0.640625q0.0625 0.140625 0.203125 0.234375q0.140625 0.078125 0.40625 0.078125q0.203125 0 0.515625 -0.046875z" fill-rule="nonzero"/><path fill="#000000" d="m396.12183 113.03622l0 -4.609375l0.703125 0l0 0.65625q0.515625 -0.75 1.46875 -0.75q0.421875 0 0.765625 0.15625q0.34375 0.140625 0.515625 0.390625q0.1875 0.234375 0.25 0.5625q0.046875 0.21875 0.046875 0.765625l0 2.828125l-0.78125 0l0 -2.796875q0 -0.484375 -0.09375 -0.71875q-0.09375 -0.234375 -0.328125 -0.375q-0.21875 -0.140625 -0.53125 -0.140625q-0.5 0 -0.875 0.328125q-0.359375 0.3125 -0.359375 1.1875l0 2.515625l-0.78125 0z" fill-rule="nonzero"/><path fill="#4285f4" d="m363.19684 86.42519l0 0c0 -1.3306961 1.0787659 -2.4094467 2.4094543 -2.4094467l0 0c0.6390381 0 1.2518921 0.25385284 1.7037354 0.70571136c0.45187378 0.45185852 0.705719 1.0647125 0.705719 1.7037354l0 0c0 1.3307037 -1.0787354 2.4094543 -2.4094543 2.4094543l0 0c-1.3306885 0 -2.4094543 -1.0787506 -2.4094543 -2.4094543z" fill-rule="evenodd"/><path stroke="#4285f4" stroke-width="1.0" stroke-linejoin="round" stroke-linecap="butt" d="m363.19684 86.42519l0 0c0 -1.3306961 1.0787659 -2.4094467 2.4094543 -2.4094467l0 0c0.6390381 0 1.2518921 0.25385284 1.7037354 0.70571136c0.45187378 0.45185852 0.705719 1.0647125 0.705719 1.7037354l0 0c0 1.3307037 -1.0787354 2.4094543 -2.4094543 2.4094543l0 0c-1.3306885 0 -2.4094543 -1.0787506 -2.4094543 -2.4094543z" fill-rule="evenodd"/><path fill="#4285f4" d="m363.19684 96.36483l0 0c0 -1.3307037 1.0787659 -2.4094467 2.4094543 -2.4094467l0 0c0.6390381 0 1.2518921 0.25385284 1.7037354 0.70571136c0.45187378 0.45185852 0.705719 1.0647125 0.705719 1.7037354l0 0c0 1.3307037 -1.0787354 2.4094467 -2.4094543 2.4094467l0 0c-1.3306885 0 -2.4094543 -1.078743 -2.4094543 -2.4094467z" fill-rule="evenodd"/><path stroke="#4285f4" stroke-width="1.0" stroke-linejoin="round" stroke-linecap="butt" d="m363.19684 96.36483l0 0c0 -1.3307037 1.0787659 -2.4094467 2.4094543 -2.4094467l0 0c0.6390381 0 1.2518921 0.25385284 1.7037354 0.70571136c0.45187378 0.45185852 0.705719 1.0647125 0.705719 1.7037354l0 0c0 1.3307037 -1.0787354 2.4094467 -2.4094543 2.4094467l0 0c-1.3306885 0 -2.4094543 -1.078743 -2.4094543 -2.4094467z" fill-rule="evenodd"/></g></svg>