<svg version="1.1" viewBox="0.0 0.0 604.7244094488188 377.9527559055118" fill="none" stroke="none" stroke-linecap="square" stroke-miterlimit="10" xmlns:xlink="http://www.w3.org/1999/xlink" xmlns="http://www.w3.org/2000/svg"><clipPath id="g118ad048964_0_83.0"><path d="m0 0l604.7244 0l0 377.95276l-604.7244 0l0 -377.95276z" clip-rule="nonzero"/></clipPath><g clip-path="url(#g118ad048964_0_83.0)"><path fill="#ffffff" d="m0 0l604.7244 0l0 377.95276l-604.7244 0z" fill-rule="evenodd"/><path fill="#ff0000" d="m13.024935 66.8294l0 0c0 -14.6116295 11.845064 -26.456696 26.456694 -26.456696l0 0c7.0167503 0 13.746113 2.7873917 18.707706 7.7489853c4.9615936 4.9615936 7.748989 11.690956 7.748989 18.70771l0 0c0 14.611626 -11.84507 26.456688 -26.456696 26.456688l0 0c-14.6116295 0 -26.456694 -11.845062 -26.456694 -26.456688z" fill-rule="evenodd"/><path stroke="#595959" stroke-width="1.0" stroke-linejoin="round" stroke-linecap="butt" d="m13.024935 66.8294l0 0c0 -14.6116295 11.845064 -26.456696 26.456694 -26.456696l0 0c7.0167503 0 13.746113 2.7873917 18.707706 7.7489853c4.9615936 4.9615936 7.748989 11.690956 7.748989 18.70771l0 0c0 14.611626 -11.84507 26.456688 -26.456696 26.456688l0 0c-14.6116295 0 -26.456694 -11.845062 -26.456694 -26.456688z" fill-rule="evenodd"/><path fill="#ff0000" d="m13.024935 157.67192l0 0c0 -14.611633 11.845064 -26.456696 26.456694 -26.456696l0 0c7.0167503 0 13.746113 2.787384 18.707706 7.7489777c4.9615936 4.9615936 7.748989 11.690964 7.748989 18.707718l0 0c0 14.611618 -11.84507 26.456696 -26.456696 26.456696l0 0c-14.6116295 0 -26.456694 -11.8450775 -26.456694 -26.456696z" fill-rule="evenodd"/><path stroke="#595959" stroke-width="1.0" stroke-linejoin="round" stroke-linecap="butt" d="m13.024935 157.67192l0 0c0 -14.611633 11.845064 -26.456696 26.456694 -26.456696l0 0c7.0167503 0 13.746113 2.787384 18.707706 7.7489777c4.9615936 4.9615936 7.748989 11.690964 7.748989 18.707718l0 0c0 14.611618 -11.84507 26.456696 -26.456696 26.456696l0 0c-14.6116295 0 -26.456694 -11.8450775 -26.456694 -26.456696z" fill-rule="evenodd"/><path fill="#ff0000" d="m13.024935 248.51443l0 0c0 -14.611633 11.845064 -26.456696 26.456694 -26.456696l0 0c7.0167503 0 13.746113 2.7873993 18.707706 7.748993c4.9615936 4.9615936 7.748989 11.6909485 7.748989 18.707703l0 0c0 14.611633 -11.84507 26.456696 -26.456696 26.456696l0 0c-14.6116295 0 -26.456694 -11.845062 -26.456694 -26.456696z" fill-rule="evenodd"/><path stroke="#595959" stroke-width="1.0" stroke-linejoin="round" stroke-linecap="butt" d="m13.024935 248.51443l0 0c0 -14.611633 11.845064 -26.456696 26.456694 -26.456696l0 0c7.0167503 0 13.746113 2.7873993 18.707706 7.748993c4.9615936 4.9615936 7.748989 11.6909485 7.748989 18.707703l0 0c0 14.611633 -11.84507 26.456696 -26.456696 26.456696l0 0c-14.6116295 0 -26.456694 -11.845062 -26.456694 -26.456696z" fill-rule="evenodd"/><path fill="#ffab40" d="m188.28215 28.900263l0 0c0 -14.611629 11.845062 -26.456694 26.456696 -26.456694l0 0c7.016754 0 13.746109 2.7873936 18.707703 7.748986c4.9615936 4.9615927 7.748993 11.690955 7.748993 18.707706l0 0c0 14.611628 -11.845062 26.456694 -26.456696 26.456694l0 0c-14.611633 0 -26.456696 -11.845066 -26.456696 -26.456694z" fill-rule="evenodd"/><path stroke="#595959" stroke-width="1.0" stroke-linejoin="round" stroke-linecap="butt" d="m188.28215 28.900263l0 0c0 -14.611629 11.845062 -26.456694 26.456696 -26.456694l0 0c7.016754 0 13.746109 2.7873936 18.707703 7.748986c4.9615936 4.9615927 7.748993 11.690955 7.748993 18.707706l0 0c0 14.611628 -11.845062 26.456694 -26.456696 26.456694l0 0c-14.611633 0 -26.456696 -11.845066 -26.456696 -26.456694z" fill-rule="evenodd"/><path fill="#ffab40" d="m188.28215 119.74278l0 0c0 -14.611626 11.845062 -26.456696 26.456696 -26.456696l0 0c7.016754 0 13.746109 2.7873993 18.707703 7.7489853c4.9615936 4.9615936 7.748993 11.690956 7.748993 18.70771l0 0c0 14.611633 -11.845062 26.456696 -26.456696 26.456696l0 0c-14.611633 0 -26.456696 -11.845062 -26.456696 -26.456696z" fill-rule="evenodd"/><path stroke="#595959" stroke-width="1.0" stroke-linejoin="round" stroke-linecap="butt" d="m188.28215 119.74278l0 0c0 -14.611626 11.845062 -26.456696 26.456696 -26.456696l0 0c7.016754 0 13.746109 2.7873993 18.707703 7.7489853c4.9615936 4.9615936 7.748993 11.690956 7.748993 18.70771l0 0c0 14.611633 -11.845062 26.456696 -26.456696 26.456696l0 0c-14.611633 0 -26.456696 -11.845062 -26.456696 -26.456696z" fill-rule="evenodd"/><path fill="#ffab40" d="m188.28215 210.5853l0 0c0 -14.611618 11.845062 -26.45668 26.456696 -26.45668l0 0c7.016754 0 13.746109 2.787384 18.707703 7.7489777c4.9615936 4.9615936 7.748993 11.690964 7.748993 18.707703l0 0c0 14.611633 -11.845062 26.456696 -26.456696 26.456696l0 0c-14.611633 0 -26.456696 -11.845062 -26.456696 -26.456696z" fill-rule="evenodd"/><path stroke="#595959" stroke-width="1.0" stroke-linejoin="round" stroke-linecap="butt" d="m188.28215 210.5853l0 0c0 -14.611618 11.845062 -26.45668 26.456696 -26.45668l0 0c7.016754 0 13.746109 2.787384 18.707703 7.7489777c4.9615936 4.9615936 7.748993 11.690964 7.748993 18.707703l0 0c0 14.611633 -11.845062 26.456696 -26.456696 26.456696l0 0c-14.611633 0 -26.456696 -11.845062 -26.456696 -26.456696z" fill-rule="evenodd"/><path fill="#ffab40" d="m188.28346 301.99213l0 0c0 -14.611633 11.845062 -26.456696 26.456696 -26.456696l0 0c7.016754 0 13.746109 2.787384 18.707703 7.748993c4.9615936 4.9615784 7.748993 11.6909485 7.748993 18.707703l0 0c0 14.611633 -11.845062 26.456696 -26.456696 26.456696l0 0c-14.611633 0 -26.456696 -11.845062 -26.456696 -26.456696z" fill-rule="evenodd"/><path stroke="#595959" stroke-width="1.0" stroke-linejoin="round" stroke-linecap="butt" d="m188.28346 301.99213l0 0c0 -14.611633 11.845062 -26.456696 26.456696 -26.456696l0 0c7.016754 0 13.746109 2.787384 18.707703 7.748993c4.9615936 4.9615784 7.748993 11.6909485 7.748993 18.707703l0 0c0 14.611633 -11.845062 26.456696 -26.456696 26.456696l0 0c-14.611633 0 -26.456696 -11.845062 -26.456696 -26.456696z" fill-rule="evenodd"/><path fill="#6aa84f" d="m538.7966 119.74278l0 0c0 -14.611626 11.845093 -26.456696 26.456726 -26.456696l0 0c7.0167236 0 13.746094 2.7873993 18.707703 7.7489853c4.961609 4.9615936 7.7489624 11.690956 7.7489624 18.70771l0 0c0 14.611633 -11.845032 26.456696 -26.456665 26.456696l0 0c-14.611633 0 -26.456726 -11.845062 -26.456726 -26.456696z" fill-rule="evenodd"/><path stroke="#595959" stroke-width="1.0" stroke-linejoin="round" stroke-linecap="butt" d="m538.7966 119.74278l0 0c0 -14.611626 11.845093 -26.456696 26.456726 -26.456696l0 0c7.0167236 0 13.746094 2.7873993 18.707703 7.7489853c4.961609 4.9615936 7.7489624 11.690956 7.7489624 18.70771l0 0c0 14.611633 -11.845032 26.456696 -26.456665 26.456696l0 0c-14.611633 0 -26.456726 -11.845062 -26.456726 -26.456696z" fill-rule="evenodd"/><path fill="#6aa84f" d="m538.7966 210.5853l0 0c0 -14.611618 11.845093 -26.45668 26.456726 -26.45668l0 0c7.0167236 0 13.746094 2.787384 18.707703 7.7489777c4.961609 4.9615936 7.7489624 11.690964 7.7489624 18.707703l0 0c0 14.611633 -11.845032 26.456696 -26.456665 26.456696l0 0c-14.611633 0 -26.456726 -11.845062 -26.456726 -26.456696z" fill-rule="evenodd"/><path stroke="#595959" stroke-width="1.0" stroke-linejoin="round" stroke-linecap="butt" d="m538.7966 210.5853l0 0c0 -14.611618 11.845093 -26.45668 26.456726 -26.45668l0 0c7.0167236 0 13.746094 2.787384 18.707703 7.7489777c4.961609 4.9615936 7.7489624 11.690964 7.7489624 18.707703l0 0c0 14.611633 -11.845032 26.456696 -26.456665 26.456696l0 0c-14.611633 0 -26.456726 -11.845062 -26.456726 -26.456696z" fill-rule="evenodd"/><path fill="#ffab40" d="m363.53937 28.900263l0 0c0 -14.611629 11.845062 -26.456694 26.456696 -26.456694l0 0c7.016754 0 13.746124 2.7873936 18.707703 7.748986c4.961609 4.9615927 7.748993 11.690955 7.748993 18.707706l0 0c0 14.611628 -11.845062 26.456694 -26.456696 26.456694l0 0c-14.611633 0 -26.456696 -11.845066 -26.456696 -26.456694z" fill-rule="evenodd"/><path stroke="#595959" stroke-width="1.0" stroke-linejoin="round" stroke-linecap="butt" d="m363.53937 28.900263l0 0c0 -14.611629 11.845062 -26.456694 26.456696 -26.456694l0 0c7.016754 0 13.746124 2.7873936 18.707703 7.748986c4.961609 4.9615927 7.748993 11.690955 7.748993 18.707706l0 0c0 14.611628 -11.845062 26.456694 -26.456696 26.456694l0 0c-14.611633 0 -26.456696 -11.845066 -26.456696 -26.456694z" fill-rule="evenodd"/><path fill="#ffab40" d="m363.53937 119.74278l0 0c0 -14.611626 11.845062 -26.456696 26.456696 -26.456696l0 0c7.016754 0 13.746124 2.7873993 18.707703 7.7489853c4.961609 4.9615936 7.748993 11.690956 7.748993 18.70771l0 0c0 14.611633 -11.845062 26.456696 -26.456696 26.456696l0 0c-14.611633 0 -26.456696 -11.845062 -26.456696 -26.456696z" fill-rule="evenodd"/><path stroke="#595959" stroke-width="1.0" stroke-linejoin="round" stroke-linecap="butt" d="m363.53937 119.74278l0 0c0 -14.611626 11.845062 -26.456696 26.456696 -26.456696l0 0c7.016754 0 13.746124 2.7873993 18.707703 7.7489853c4.961609 4.9615936 7.748993 11.690956 7.748993 18.70771l0 0c0 14.611633 -11.845062 26.456696 -26.456696 26.456696l0 0c-14.611633 0 -26.456696 -11.845062 -26.456696 -26.456696z" fill-rule="evenodd"/><path fill="#ffab40" d="m363.53937 210.5853l0 0c0 -14.611618 11.845062 -26.45668 26.456696 -26.45668l0 0c7.016754 0 13.746124 2.787384 18.707703 7.7489777c4.961609 4.9615936 7.748993 11.690964 7.748993 18.707703l0 0c0 14.611633 -11.845062 26.456696 -26.456696 26.456696l0 0c-14.611633 0 -26.456696 -11.845062 -26.456696 -26.456696z" fill-rule="evenodd"/><path stroke="#595959" stroke-width="1.0" stroke-linejoin="round" stroke-linecap="butt" d="m363.53937 210.5853l0 0c0 -14.611618 11.845062 -26.45668 26.456696 -26.45668l0 0c7.016754 0 13.746124 2.787384 18.707703 7.7489777c4.961609 4.9615936 7.748993 11.690964 7.748993 18.707703l0 0c0 14.611633 -11.845062 26.456696 -26.456696 26.456696l0 0c-14.611633 0 -26.456696 -11.845062 -26.456696 -26.456696z" fill-rule="evenodd"/><path fill="#ffab40" d="m363.54068 301.99213l0 0c0 -14.611633 11.845062 -26.456696 26.456696 -26.456696l0 0c7.016754 0 13.746124 2.787384 18.707703 7.748993c4.961609 4.9615784 7.748993 11.6909485 7.748993 18.707703l0 0c0 14.611633 -11.845062 26.456696 -26.456696 26.456696l0 0c-14.611633 0 -26.456696 -11.845062 -26.456696 -26.456696z" fill-rule="evenodd"/><path stroke="#595959" stroke-width="1.0" stroke-linejoin="round" stroke-linecap="butt" d="m363.54068 301.99213l0 0c0 -14.611633 11.845062 -26.456696 26.456696 -26.456696l0 0c7.016754 0 13.746124 2.787384 18.707703 7.748993c4.961609 4.9615784 7.748993 11.6909485 7.748993 18.707703l0 0c0 14.611633 -11.845062 26.456696 -26.456696 26.456696l0 0c-14.611633 0 -26.456696 -11.845062 -26.456696 -26.456696z" fill-rule="evenodd"/><path fill="#000000" fill-opacity="0.0" d="m65.938324 66.8294l122.3307 -37.921265" fill-rule="evenodd"/><path stroke="#595959" stroke-width="2.0" stroke-linejoin="round" stroke-linecap="butt" d="m65.938324 66.8294l122.3307 -37.921265" fill-rule="evenodd"/><path fill="#000000" fill-opacity="0.0" d="m65.938324 66.8294l122.3307 52.913383" fill-rule="evenodd"/><path stroke="#595959" stroke-width="2.0" stroke-linejoin="round" stroke-linecap="butt" d="m65.938324 66.8294l122.3307 52.913383" fill-rule="evenodd"/><path fill="#000000" fill-opacity="0.0" d="m65.938324 66.8294l122.3307 143.74802" fill-rule="evenodd"/><path stroke="#595959" stroke-width="2.0" stroke-linejoin="round" stroke-linecap="butt" d="m65.938324 66.8294l122.3307 143.74802" fill-rule="evenodd"/><path fill="#000000" fill-opacity="0.0" d="m65.938324 66.8294l122.3307 235.1496" fill-rule="evenodd"/><path stroke="#595959" stroke-width="2.0" stroke-linejoin="round" stroke-linecap="butt" d="m65.938324 66.8294l122.3307 235.1496" fill-rule="evenodd"/><path fill="#000000" fill-opacity="0.0" d="m65.938324 157.67192l122.3307 -128.78741" fill-rule="evenodd"/><path stroke="#595959" stroke-width="2.0" stroke-linejoin="round" stroke-linecap="butt" d="m65.938324 157.67192l122.3307 -128.78741" fill-rule="evenodd"/><path fill="#000000" fill-opacity="0.0" d="m65.938324 157.67192l122.3307 52.913376" fill-rule="evenodd"/><path stroke="#595959" stroke-width="2.0" stroke-linejoin="round" stroke-linecap="butt" d="m65.938324 157.67192l122.3307 52.913376" fill-rule="evenodd"/><path fill="#000000" fill-opacity="0.0" d="m65.938324 157.67192l122.3307 144.31496" fill-rule="evenodd"/><path stroke="#595959" stroke-width="2.0" stroke-linejoin="round" stroke-linecap="butt" d="m65.938324 157.67192l122.3307 144.31496" fill-rule="evenodd"/><path fill="#000000" fill-opacity="0.0" d="m65.938324 248.51443l122.3307 -219.62204" fill-rule="evenodd"/><path stroke="#595959" stroke-width="2.0" stroke-linejoin="round" stroke-linecap="butt" d="m65.938324 248.51443l122.3307 -219.62204" fill-rule="evenodd"/><path fill="#000000" fill-opacity="0.0" d="m65.938324 248.51443l122.3307 -128.7874" fill-rule="evenodd"/><path stroke="#595959" stroke-width="2.0" stroke-linejoin="round" stroke-linecap="butt" d="m65.938324 248.51443l122.3307 -128.7874" fill-rule="evenodd"/><path fill="#000000" fill-opacity="0.0" d="m65.938324 248.51443l122.3307 -37.921265" fill-rule="evenodd"/><path stroke="#595959" stroke-width="2.0" stroke-linejoin="round" stroke-linecap="butt" d="m65.938324 248.51443l122.3307 -37.921265" fill-rule="evenodd"/><path fill="#000000" fill-opacity="0.0" d="m65.938324 248.51443l122.3307 53.480316" fill-rule="evenodd"/><path stroke="#595959" stroke-width="2.0" stroke-linejoin="round" stroke-linecap="butt" d="m65.938324 248.51443l122.3307 53.480316" fill-rule="evenodd"/><path fill="#000000" fill-opacity="0.0" d="m241.19554 28.900263l122.3307 0" fill-rule="evenodd"/><path stroke="#595959" stroke-width="2.0" stroke-linejoin="round" stroke-linecap="butt" d="m241.19554 28.900263l122.3307 0" fill-rule="evenodd"/><path fill="#000000" fill-opacity="0.0" d="m241.19554 28.900263l122.3307 90.83465" fill-rule="evenodd"/><path stroke="#595959" stroke-width="2.0" stroke-linejoin="round" stroke-linecap="butt" d="m241.19554 28.900263l122.3307 90.83465" fill-rule="evenodd"/><path fill="#000000" fill-opacity="0.0" d="m241.19554 28.900263l122.3307 181.70078" fill-rule="evenodd"/><path stroke="#595959" stroke-width="2.0" stroke-linejoin="round" stroke-linecap="butt" d="m241.19554 28.900263l122.3307 181.70078" fill-rule="evenodd"/><path fill="#000000" fill-opacity="0.0" d="m241.19554 28.900263l122.3307 273.10236" fill-rule="evenodd"/><path stroke="#595959" stroke-width="2.0" stroke-linejoin="round" stroke-linecap="butt" d="m241.19554 28.900263l122.3307 273.10236" fill-rule="evenodd"/><path fill="#000000" fill-opacity="0.0" d="m241.19554 119.74278l122.3307 -90.83465" fill-rule="evenodd"/><path stroke="#595959" stroke-width="2.0" stroke-linejoin="round" stroke-linecap="butt" d="m241.19554 119.74278l122.3307 -90.83465" fill-rule="evenodd"/><path fill="#000000" fill-opacity="0.0" d="m241.19554 119.74278l122.3307 0" fill-rule="evenodd"/><path stroke="#595959" stroke-width="2.0" stroke-linejoin="round" stroke-linecap="butt" d="m241.19554 119.74278l122.3307 0" fill-rule="evenodd"/><path fill="#000000" fill-opacity="0.0" d="m241.19554 119.74278l122.3307 90.83464" fill-rule="evenodd"/><path stroke="#595959" stroke-width="2.0" stroke-linejoin="round" stroke-linecap="butt" d="m241.19554 119.74278l122.3307 90.83464" fill-rule="evenodd"/><path fill="#000000" fill-opacity="0.0" d="m241.19554 119.74278l122.3307 182.23622" fill-rule="evenodd"/><path stroke="#595959" stroke-width="2.0" stroke-linejoin="round" stroke-linecap="butt" d="m241.19554 119.74278l122.3307 182.23622" fill-rule="evenodd"/><path fill="#000000" fill-opacity="0.0" d="m241.19554 210.5853l122.3307 -181.66928" fill-rule="evenodd"/><path stroke="#595959" stroke-width="2.0" stroke-linejoin="round" stroke-linecap="butt" d="m241.19554 210.5853l122.3307 -181.66928" fill-rule="evenodd"/><path fill="#000000" fill-opacity="0.0" d="m241.19554 210.5853l122.3307 -90.83464" fill-rule="evenodd"/><path stroke="#595959" stroke-width="2.0" stroke-linejoin="round" stroke-linecap="butt" d="m241.19554 210.5853l122.3307 -90.83464" fill-rule="evenodd"/><path fill="#000000" fill-opacity="0.0" d="m241.19554 210.5853l122.3307 0" fill-rule="evenodd"/><path stroke="#595959" stroke-width="2.0" stroke-linejoin="round" stroke-linecap="butt" d="m241.19554 210.5853l122.3307 0" fill-rule="evenodd"/><path fill="#000000" fill-opacity="0.0" d="m241.19554 210.5853l122.3307 91.40158" fill-rule="evenodd"/><path stroke="#595959" stroke-width="2.0" stroke-linejoin="round" stroke-linecap="butt" d="m241.19554 210.5853l122.3307 91.40158" fill-rule="evenodd"/><path fill="#000000" fill-opacity="0.0" d="m241.19685 301.99213l122.3307 -273.10236" fill-rule="evenodd"/><path stroke="#595959" stroke-width="2.0" stroke-linejoin="round" stroke-linecap="butt" d="m241.19685 301.99213l122.3307 -273.10236" fill-rule="evenodd"/><path fill="#000000" fill-opacity="0.0" d="m241.19685 301.99213l122.3307 -182.23622" fill-rule="evenodd"/><path stroke="#595959" stroke-width="2.0" stroke-linejoin="round" stroke-linecap="butt" d="m241.19685 301.99213l122.3307 -182.23622" fill-rule="evenodd"/><path fill="#000000" fill-opacity="0.0" d="m241.19685 301.99213l122.3307 -91.40158" fill-rule="evenodd"/><path stroke="#595959" stroke-width="2.0" stroke-linejoin="round" stroke-linecap="butt" d="m241.19685 301.99213l122.3307 -91.40158" fill-rule="evenodd"/><path fill="#000000" fill-opacity="0.0" d="m241.19685 301.99213l122.3307 0" fill-rule="evenodd"/><path stroke="#595959" stroke-width="2.0" stroke-linejoin="round" stroke-linecap="butt" d="m241.19685 301.99213l122.3307 0" fill-rule="evenodd"/><path fill="#000000" fill-opacity="0.0" d="m416.45276 28.900263l122.33069 90.83465" fill-rule="evenodd"/><path stroke="#595959" stroke-width="2.0" stroke-linejoin="round" stroke-linecap="butt" d="m416.45276 28.900263l122.33069 90.83465" fill-rule="evenodd"/><path fill="#000000" fill-opacity="0.0" d="m416.45276 28.900263l122.33069 181.70078" fill-rule="evenodd"/><path stroke="#595959" stroke-width="2.0" stroke-linejoin="round" stroke-linecap="butt" d="m416.45276 28.900263l122.33069 181.70078" fill-rule="evenodd"/><path fill="#000000" fill-opacity="0.0" d="m416.45276 119.74278l122.33069 0" fill-rule="evenodd"/><path stroke="#595959" stroke-width="2.0" stroke-linejoin="round" stroke-linecap="butt" d="m416.45276 119.74278l122.33069 0" fill-rule="evenodd"/><path fill="#000000" fill-opacity="0.0" d="m416.45276 119.74278l122.33069 90.83464" fill-rule="evenodd"/><path stroke="#595959" stroke-width="2.0" stroke-linejoin="round" stroke-linecap="butt" d="m416.45276 119.74278l122.33069 90.83464" fill-rule="evenodd"/><path fill="#000000" fill-opacity="0.0" d="m416.45276 210.5853l122.33069 -90.83464" fill-rule="evenodd"/><path stroke="#595959" stroke-width="2.0" stroke-linejoin="round" stroke-linecap="butt" d="m416.45276 210.5853l122.33069 -90.83464" fill-rule="evenodd"/><path fill="#000000" fill-opacity="0.0" d="m416.45276 210.5853l122.33069 0" fill-rule="evenodd"/><path stroke="#595959" stroke-width="2.0" stroke-linejoin="round" stroke-linecap="butt" d="m416.45276 210.5853l122.33069 0" fill-rule="evenodd"/><path fill="#000000" fill-opacity="0.0" d="m416.46588 301.41208l122.33069 -181.6693" fill-rule="evenodd"/><path stroke="#595959" stroke-width="2.0" stroke-linejoin="round" stroke-linecap="butt" d="m416.46588 301.41208l122.33069 -181.6693" fill-rule="evenodd"/><path fill="#000000" fill-opacity="0.0" d="m416.45407 301.99213l122.33072 -91.40158" fill-rule="evenodd"/><path stroke="#595959" stroke-width="2.0" stroke-linejoin="round" stroke-linecap="butt" d="m416.45407 301.99213l122.33072 -91.40158" fill-rule="evenodd"/><path fill="#ffffff" d="m1.0498688 336.73752l69.6378 0l0 38.771667l-69.6378 0z" fill-rule="evenodd"/><path fill="#ff0000" d="m11.143619 361.09753l0 -11.453125l2.3125 0l0 11.453125l-2.3125 0zm12.054688 0l-2.203125 0l0 -4.234375q0 -1.34375 -0.140625 -1.734375q-0.140625 -0.40625 -0.453125 -0.625q-0.3125 -0.21875 -0.765625 -0.21875q-0.5625 0 -1.015625 0.3125q-0.453125 0.3125 -0.625 0.828125q-0.171875 0.515625 -0.171875 1.90625l0 3.765625l-2.187501 0l0 -8.296875l2.031251 0l0 1.21875q1.09375 -1.40625 2.734375 -1.40625q0.734375 0 1.328125 0.265625q0.609375 0.25 0.90625 0.65625q0.3125 0.40625 0.4375 0.921875q0.125 0.515625 0.125 1.484375l0 5.15625zm2.1640625 -8.296875l2.046875 0l0 1.21875q0.390625 -0.625 1.0625 -1.015625q0.6875 -0.390625 1.515625 -0.390625q1.453125 0 2.453125 1.140625q1.015625 1.125 1.015625 3.140625q0 2.078125 -1.015625 3.234375q-1.015625 1.15625 -2.46875 1.15625q-0.6875 0 -1.25 -0.265625q-0.546875 -0.28125 -1.171875 -0.953125l0 4.1875l-2.1875 0l0 -11.453125zm2.171875 4.0q0 1.40625 0.546875 2.078125q0.5625 0.65625 1.359375 0.65625q0.765625 0 1.265625 -0.609375q0.515625 -0.609375 0.515625 -2.015625q0 -1.296875 -0.53125 -1.921875q-0.515625 -0.640625 -1.296875 -0.640625q-0.796875 0 -1.328125 0.625q-0.53125 0.609375 -0.53125 1.828125zm13.1171875 4.296875l0 -1.25q-0.453125 0.671875 -1.1875 1.0625q-0.734375 0.375 -1.5625 0.375q-0.828125 0 -1.5 -0.359375q-0.65625 -0.375 -0.953125 -1.03125q-0.296875 -0.671875 -0.296875 -1.84375l0 -5.25l2.1875 0l0 3.8125q0 1.75 0.125 2.140625q0.125 0.390625 0.4375 0.625q0.328125 0.234375 0.8125 0.234375q0.5625 0 1.0 -0.3125q0.453125 -0.3125 0.609375 -0.765625q0.171875 -0.453125 0.171875 -2.234375l0 -3.5l2.203125 0l0 8.296875l-2.046875 0zm8.1171875 -8.296875l0 1.75l-1.5 0l0 3.34375q0 1.015625 0.046875 1.1875q0.046875 0.15625 0.1875 0.265625q0.15625 0.109375 0.375 0.109375q0.3125 0 0.890625 -0.203125l0.1875 1.703125q-0.765625 0.328125 -1.734375 0.328125q-0.59375 0 -1.078125 -0.203125q-0.46875 -0.203125 -0.703125 -0.515625q-0.21875 -0.3125 -0.296875 -0.859375q-0.078125 -0.375 -0.078125 -1.546875l0 -3.609375l-1.0 0l0 -1.75l1.0 0l0 -1.65625l2.203125 -1.28125l0 2.9375l1.5 0zm0.75 5.921875l2.203125 -0.328125q0.140625 0.640625 0.5625 0.96875q0.4375 0.328125 1.21875 0.328125q0.84375 0 1.28125 -0.3125q0.28125 -0.21875 0.28125 -0.578125q0 -0.25 -0.15625 -0.421875q-0.15625 -0.15625 -0.734375 -0.28125q-2.65625 -0.59375 -3.359375 -1.078125q-0.984375 -0.671875 -0.984375 -1.859375q0 -1.078125 0.84375 -1.8125q0.859375 -0.734375 2.640625 -0.734375q1.703125 0 2.53125 0.5625q0.828125 0.546875 1.140625 1.625l-2.0625 0.390625q-0.140625 -0.484375 -0.515625 -0.734375q-0.359375 -0.265625 -1.046875 -0.265625q-0.875 0 -1.25 0.234375q-0.25 0.171875 -0.25 0.453125q0 0.234375 0.21875 0.390625q0.296875 0.21875 2.046875 0.625q1.765625 0.390625 2.453125 0.96875q0.6875 0.59375 0.6875 1.640625q0 1.140625 -0.953125 1.96875q-0.953125 0.8125 -2.8125 0.8125q-1.703125 0 -2.6875 -0.6875q-0.984375 -0.6875 -1.296875 -1.875z" fill-rule="nonzero"/><path fill="#000000" fill-opacity="0.0" d="m519.60895 336.73752l84.06299 0l0 38.771667l-84.06299 0z" fill-rule="evenodd"/><path fill="#6aa84f" d="m529.3121 355.44128q0 -1.75 0.515625 -2.9375q0.390625 -0.875 1.0625 -1.5625q0.6875 -0.703125 1.484375 -1.046875q1.078125 -0.453125 2.46875 -0.453125q2.53125 0 4.046875 1.578125q1.53125 1.5625 1.53125 4.359375q0 2.78125 -1.515625 4.359375q-1.5 1.5625 -4.03125 1.5625q-2.546875 0 -4.0625 -1.5625q-1.5 -1.5625 -1.5 -4.296875zm2.375 -0.078125q0 1.9375 0.890625 2.953125q0.90625 1.0 2.296875 1.0q1.375 0 2.265625 -1.0q0.890625 -1.0 0.890625 -2.984375q0 -1.96875 -0.875 -2.9375q-0.859375 -0.96875 -2.28125 -0.96875q-1.4375 0 -2.3125 0.984375q-0.875 0.96875 -0.875 2.953125zm15.9765625 5.734375l0 -1.25q-0.453125 0.671875 -1.1875 1.0625q-0.734375 0.375 -1.5625 0.375q-0.828125 0 -1.5 -0.359375q-0.65625 -0.375 -0.953125 -1.03125q-0.296875 -0.671875 -0.296875 -1.84375l0 -5.25l2.1875 0l0 3.8125q0 1.75 0.125 2.140625q0.125 0.390625 0.4375 0.625q0.328125 0.234375 0.8125 0.234375q0.5625 0 1.0 -0.3125q0.453125 -0.3125 0.609375 -0.765625q0.171875 -0.453125 0.171875 -2.234375l0 -3.5l2.203125 0l0 8.296875l-2.046875 0zm8.1171875 -8.296875l0 1.75l-1.5 0l0 3.34375q0 1.015625 0.046875 1.1875q0.046875 0.15625 0.1875 0.265625q0.15625 0.109375 0.375 0.109375q0.3125 0 0.890625 -0.203125l0.1875 1.703125q-0.765625 0.328125 -1.734375 0.328125q-0.59375 0 -1.078125 -0.203125q-0.46875 -0.203125 -0.703125 -0.515625q-0.21875 -0.3125 -0.296875 -0.859375q-0.078125 -0.375 -0.078125 -1.546875l0 -3.609375l-1.0 0l0 -1.75l1.0 0l0 -1.65625l2.203125 -1.28125l0 2.9375l1.5 0zm1.46875 0l2.046875 0l0 1.21875q0.390625 -0.625 1.0625 -1.015625q0.6875 -0.390625 1.515625 -0.390625q1.453125 0 2.453125 1.140625q1.015625 1.125 1.015625 3.140625q0 2.078125 -1.015625 3.234375q-1.015625 1.15625 -2.46875 1.15625q-0.6875 0 -1.25 -0.265625q-0.546875 -0.28125 -1.171875 -0.953125l0 4.1875l-2.1875 0l0 -11.453125zm2.171875 4.0q0 1.40625 0.546875 2.078125q0.5625 0.65625 1.359375 0.65625q0.765625 0 1.265625 -0.609375q0.515625 -0.609375 0.515625 -2.015625q0 -1.296875 -0.53125 -1.921875q-0.515625 -0.640625 -1.296875 -0.640625q-0.796875 0 -1.328125 0.625q-0.53125 0.609375 -0.53125 1.828125zm13.1171875 4.296875l0 -1.25q-0.453125 0.671875 -1.1875 1.0625q-0.734375 0.375 -1.5625 0.375q-0.828125 0 -1.5 -0.359375q-0.65625 -0.375 -0.953125 -1.03125q-0.296875 -0.671875 -0.296875 -1.84375l0 -5.25l2.1875 0l0 3.8125q0 1.75 0.125 2.140625q0.125 0.390625 0.4375 0.625q0.328125 0.234375 0.8125 0.234375q0.5625 0 1.0 -0.3125q0.453125 -0.3125 0.609375 -0.765625q0.171875 -0.453125 0.171875 -2.234375l0 -3.5l2.203125 0l0 8.296875l-2.046875 0zm8.1171875 -8.296875l0 1.75l-1.5 0l0 3.34375q0 1.015625 0.046875 1.1875q0.046875 0.15625 0.1875 0.265625q0.15625 0.109375 0.375 0.109375q0.3125 0 0.890625 -0.203125l0.1875 1.703125q-0.765625 0.328125 -1.734375 0.328125q-0.59375 0 -1.078125 -0.203125q-0.46875 -0.203125 -0.703125 -0.515625q-0.21875 -0.3125 -0.296875 -0.859375q-0.078125 -0.375 -0.078125 -1.546875l0 -3.609375l-1.0 0l0 -1.75l1.0 0l0 -1.65625l2.203125 -1.28125l0 2.9375l1.5 0zm0.75 5.921875l2.203125 -0.328125q0.140625 0.640625 0.5625 0.96875q0.4375 0.328125 1.21875 0.328125q0.84375 0 1.28125 -0.3125q0.28125 -0.21875 0.28125 -0.578125q0 -0.25 -0.15625 -0.421875q-0.15625 -0.15625 -0.734375 -0.28125q-2.65625 -0.59375 -3.359375 -1.078125q-0.984375 -0.671875 -0.984375 -1.859375q0 -1.078125 0.84375 -1.8125q0.859375 -0.734375 2.640625 -0.734375q1.703125 0 2.53125 0.5625q0.828125 0.546875 1.140625 1.625l-2.0625 0.390625q-0.140625 -0.484375 -0.515625 -0.734375q-0.359375 -0.265625 -1.046875 -0.265625q-0.875 0 -1.25 0.234375q-0.25 0.171875 -0.25 0.453125q0 0.234375 0.21875 0.390625q0.296875 0.21875 2.046875 0.625q1.765625 0.390625 2.453125 0.96875q0.6875 0.59375 0.6875 1.640625q0 1.140625 -0.953125 1.96875q-0.953125 0.8125 -2.8125 0.8125q-1.703125 0 -2.6875 -0.6875q-0.984375 -0.6875 -1.296875 -1.875z" fill-rule="nonzero"/><path fill="#000000" fill-opacity="0.0" d="m237.98425 336.73752l128.75589 0l0 38.771667l-128.75589 0z" fill-rule="evenodd"/><path fill="#ffab40" d="m248.15613 361.09753l0 -11.453125l2.3125 0l0 4.5l4.53125 0l0 -4.5l2.3125 0l0 11.453125l-2.3125 0l0 -5.015625l-4.53125 0l0 5.015625l-2.3125 0zm11.5390625 -9.421875l0 -2.03125l2.1875 0l0 2.03125l-2.1875 0zm0 9.421875l0 -8.296875l2.1875 0l0 8.296875l-2.1875 0zm12.0546875 0l-2.046875 0l0 -1.21875q-0.5 0.703125 -1.203125 1.0625q-0.6875 0.34375 -1.390625 0.34375q-1.421875 0 -2.453125 -1.15625q-1.015625 -1.15625 -1.015625 -3.21875q0 -2.109375 0.984375 -3.203125q1.0 -1.09375 2.515625 -1.09375q1.390625 0 2.40625 1.15625l0 -4.125l2.203125 0l0 11.453125zm-5.859375 -4.328125q0 1.328125 0.359375 1.921875q0.53125 0.859375 1.484375 0.859375q0.765625 0 1.296875 -0.640625q0.53125 -0.65625 0.53125 -1.9375q0 -1.421875 -0.515625 -2.046875q-0.515625 -0.640625 -1.328125 -0.640625q-0.78125 0 -1.3125 0.625q-0.515625 0.625 -0.515625 1.859375zm15.6328125 4.328125l-2.046875 0l0 -1.21875q-0.5 0.703125 -1.203125 1.0625q-0.6875 0.34375 -1.390625 0.34375q-1.421875 0 -2.453125 -1.15625q-1.015625 -1.15625 -1.015625 -3.21875q0 -2.109375 0.984375 -3.203125q1.0 -1.09375 2.515625 -1.09375q1.390625 0 2.40625 1.15625l0 -4.125l2.203125 0l0 11.453125zm-5.859375 -4.328125q0 1.328125 0.359375 1.921875q0.53125 0.859375 1.484375 0.859375q0.765625 0 1.296875 -0.640625q0.53125 -0.65625 0.53125 -1.9375q0 -1.421875 -0.515625 -2.046875q-0.515625 -0.640625 -1.328125 -0.640625q-0.78125 0 -1.3125 0.625q-0.515625 0.625 -0.515625 1.859375zm12.8203125 1.6875l2.1875 0.359375q-0.421875 1.203125 -1.328125 1.84375q-0.90625 0.625 -2.28125 0.625q-2.15625 0 -3.203125 -1.421875q-0.8125 -1.125 -0.8125 -2.859375q0 -2.0625 1.078125 -3.21875q1.078125 -1.171875 2.71875 -1.171875q1.859375 0 2.921875 1.21875q1.078125 1.21875 1.03125 3.75l-5.5 0q0.015625 0.96875 0.515625 1.515625q0.515625 0.546875 1.28125 0.546875q0.515625 0 0.859375 -0.28125q0.359375 -0.28125 0.53125 -0.90625zm0.125 -2.21875q-0.015625 -0.953125 -0.484375 -1.453125q-0.46875 -0.5 -1.140625 -0.5q-0.71875 0 -1.1875 0.53125q-0.46875 0.515625 -0.46875 1.421875l3.28125 0zm11.5234375 4.859375l-2.203125 0l0 -4.234375q0 -1.34375 -0.140625 -1.734375q-0.140625 -0.40625 -0.453125 -0.625q-0.3125 -0.21875 -0.765625 -0.21875q-0.5625 0 -1.015625 0.3125q-0.453125 0.3125 -0.625 0.828125q-0.171875 0.515625 -0.171875 1.90625l0 3.765625l-2.1875 0l0 -8.296875l2.03125 0l0 1.21875q1.09375 -1.40625 2.734375 -1.40625q0.734375 0 1.328125 0.265625q0.609375 0.25 0.90625 0.65625q0.3125 0.40625 0.4375 0.921875q0.125 0.515625 0.125 1.484375l0 5.15625zm6.671875 0l0 -11.453125l2.1875 0l0 11.453125l-2.1875 0zm6.0859375 -5.765625l-2.0 -0.359375q0.34375 -1.203125 1.15625 -1.78125q0.828125 -0.578125 2.4375 -0.578125q1.46875 0 2.1875 0.34375q0.71875 0.34375 1.015625 0.890625q0.296875 0.53125 0.296875 1.953125l-0.03125 2.5625q0 1.09375 0.109375 1.625q0.109375 0.515625 0.390625 1.109375l-2.171875 0q-0.078125 -0.21875 -0.203125 -0.65625q-0.0625 -0.1875 -0.078125 -0.25q-0.5625 0.546875 -1.203125 0.828125q-0.640625 0.265625 -1.375 0.265625q-1.28125 0 -2.015625 -0.6875q-0.734375 -0.703125 -0.734375 -1.765625q0 -0.703125 0.328125 -1.25q0.34375 -0.5625 0.9375 -0.84375q0.609375 -0.296875 1.75 -0.515625q1.546875 -0.296875 2.140625 -0.546875l0 -0.21875q0 -0.625 -0.3125 -0.890625q-0.3125 -0.28125 -1.1875 -0.28125q-0.578125 0 -0.90625 0.234375q-0.328125 0.234375 -0.53125 0.8125zm2.9375 1.78125q-0.421875 0.140625 -1.34375 0.34375q-0.90625 0.1875 -1.1875 0.375q-0.4375 0.296875 -0.4375 0.765625q0 0.46875 0.34375 0.8125q0.34375 0.328125 0.875 0.328125q0.59375 0 1.140625 -0.390625q0.390625 -0.296875 0.515625 -0.734375q0.09375 -0.28125 0.09375 -1.0625l0 -0.4375zm3.2734375 -4.3125l2.34375 0l1.984375 5.890625l1.9375 -5.890625l2.265625 0l-2.921875 7.984375l-0.53125 1.453125q-0.28125 0.71875 -0.546875 1.09375q-0.265625 0.390625 -0.609375 0.625q-0.328125 0.25 -0.828125 0.375q-0.5 0.140625 -1.125 0.140625q-0.625 0 -1.234375 -0.140625l-0.203125 -1.71875q0.515625 0.109375 0.9375 0.109375q0.765625 0 1.125 -0.453125q0.375 -0.453125 0.5625 -1.140625l-3.15625 -8.328125zm14.7421875 5.65625l2.1875 0.359375q-0.421875 1.203125 -1.328125 1.84375q-0.90625 0.625 -2.28125 0.625q-2.15625 0 -3.203125 -1.421875q-0.8125 -1.125 -0.8125 -2.859375q0 -2.0625 1.078125 -3.21875q1.078125 -1.171875 2.71875 -1.171875q1.859375 0 2.921875 1.21875q1.078125 1.21875 1.03125 3.75l-5.5 0q0.015625 0.96875 0.515625 1.515625q0.515625 0.546875 1.28125 0.546875q0.515625 0 0.859375 -0.28125q0.359375 -0.28125 0.53125 -0.90625zm0.125 -2.21875q-0.015625 -0.953125 -0.484375 -1.453125q-0.46875 -0.5 -1.140625 -0.5q-0.71875 0 -1.1875 0.53125q-0.46875 0.515625 -0.46875 1.421875l3.28125 0zm6.0703125 4.859375l-2.1875 0l0 -8.296875l2.03125 0l0 1.171875q0.53125 -0.828125 0.9375 -1.09375q0.421875 -0.265625 0.953125 -0.265625q0.75 0 1.453125 0.40625l-0.6875 1.921875q-0.546875 -0.359375 -1.03125 -0.359375q-0.453125 0 -0.78125 0.25q-0.3125 0.25 -0.5 0.921875q-0.1875 0.65625 -0.1875 2.78125l0 2.5625zm3.3515625 -2.375l2.203125 -0.328125q0.140625 0.640625 0.5625 0.96875q0.4375 0.328125 1.21875 0.328125q0.84375 0 1.28125 -0.3125q0.28125 -0.21875 0.28125 -0.578125q0 -0.25 -0.15625 -0.421875q-0.15625 -0.15625 -0.734375 -0.28125q-2.65625 -0.59375 -3.359375 -1.078125q-0.984375 -0.671875 -0.984375 -1.859375q0 -1.078125 0.84375 -1.8125q0.859375 -0.734375 2.640625 -0.734375q1.703125 0 2.53125 0.5625q0.828125 0.546875 1.140625 1.625l-2.0625 0.390625q-0.140625 -0.484375 -0.515625 -0.734375q-0.359375 -0.265625 -1.046875 -0.265625q-0.875 0 -1.25 0.234375q-0.25 0.171875 -0.25 0.453125q0 0.234375 0.21875 0.390625q0.296875 0.21875 2.046875 0.625q1.765625 0.390625 2.453125 0.96875q0.6875 0.59375 0.6875 1.640625q0 1.140625 -0.953125 1.96875q-0.953125 0.8125 -2.8125 0.8125q-1.703125 0 -2.6875 -0.6875q-0.984375 -0.6875 -1.296875 -1.875z" fill-rule="nonzero"/><path fill="#000000" d="m36.143044 190.81627l0 0c0 -1.8438416 1.4947357 -3.3385773 3.338585 -3.3385773l0 0c0.88544464 0 1.7346268 0.3517456 2.360733 0.97784424c0.62610626 0.6261139 0.97784805 1.475296 0.97784805 2.360733l0 0c0 1.8438568 -1.4947357 3.3385925 -3.338581 3.3385925l0 0c-1.8438492 0 -3.338585 -1.4947357 -3.338585 -3.3385925z" fill-rule="evenodd"/><path stroke="#595959" stroke-width="1.0" stroke-linejoin="round" stroke-linecap="butt" d="m36.143044 190.81627l0 0c0 -1.8438416 1.4947357 -3.3385773 3.338585 -3.3385773l0 0c0.88544464 0 1.7346268 0.3517456 2.360733 0.97784424c0.62610626 0.6261139 0.97784805 1.475296 0.97784805 2.360733l0 0c0 1.8438568 -1.4947357 3.3385925 -3.338581 3.3385925l0 0c-1.8438492 0 -3.338585 -1.4947357 -3.338585 -3.3385925z" fill-rule="evenodd"/><path fill="#434343" d="m36.143044 203.09317l0 0c0 -1.8438416 1.4947357 -3.3385773 3.338585 -3.3385773l0 0c0.88544464 0 1.7346268 0.3517456 2.360733 0.97784424c0.62610626 0.6261139 0.97784805 1.475296 0.97784805 2.360733l0 0c0 1.8438568 -1.4947357 3.3385925 -3.338581 3.3385925l0 0c-1.8438492 0 -3.338585 -1.4947357 -3.338585 -3.3385925z" fill-rule="evenodd"/><path stroke="#434343" stroke-width="1.0" stroke-linejoin="round" stroke-linecap="butt" d="m36.143044 203.09317l0 0c0 -1.8438416 1.4947357 -3.3385773 3.338585 -3.3385773l0 0c0.88544464 0 1.7346268 0.3517456 2.360733 0.97784424c0.62610626 0.6261139 0.97784805 1.475296 0.97784805 2.360733l0 0c0 1.8438568 -1.4947357 3.3385925 -3.338581 3.3385925l0 0c-1.8438492 0 -3.338585 -1.4947357 -3.338585 -3.3385925z" fill-rule="evenodd"/><path fill="#666666" d="m36.143044 214.2454l0 0c0 -1.8438416 1.4947357 -3.3385773 3.338585 -3.3385773l0 0c0.88544464 0 1.7346268 0.35173035 2.360733 0.97784424c0.62610626 0.62609863 0.97784805 1.4752808 0.97784805 2.360733l0 0c0 1.8438416 -1.4947357 3.3385773 -3.338581 3.3385773l0 0c-1.8438492 0 -3.338585 -1.4947357 -3.338585 -3.3385773z" fill-rule="evenodd"/><path stroke="#666666" stroke-width="1.0" stroke-linejoin="round" stroke-linecap="butt" d="m36.143044 214.2454l0 0c0 -1.8438416 1.4947357 -3.3385773 3.338585 -3.3385773l0 0c0.88544464 0 1.7346268 0.35173035 2.360733 0.97784424c0.62610626 0.62609863 0.97784805 1.4752808 0.97784805 2.360733l0 0c0 1.8438416 -1.4947357 3.3385773 -3.338581 3.3385773l0 0c-1.8438492 0 -3.338585 -1.4947357 -3.338585 -3.3385773z" fill-rule="evenodd"/><path fill="#000000" d="m211.3937 244.29134l0 0c0 -1.8438416 1.4947205 -3.3385773 3.3385773 -3.3385773l0 0c0.8854523 0 1.7346344 0.3517456 2.360733 0.97784424c0.62609863 0.6261139 0.97784424 1.4752808 0.97784424 2.360733l0 0c0 1.8438568 -1.4947357 3.3385925 -3.3385773 3.3385925l0 0c-1.8438568 0 -3.3385773 -1.4947357 -3.3385773 -3.3385925z" fill-rule="evenodd"/><path stroke="#595959" stroke-width="1.0" stroke-linejoin="round" stroke-linecap="butt" d="m211.3937 244.29134l0 0c0 -1.8438416 1.4947205 -3.3385773 3.3385773 -3.3385773l0 0c0.8854523 0 1.7346344 0.3517456 2.360733 0.97784424c0.62609863 0.6261139 0.97784424 1.4752808 0.97784424 2.360733l0 0c0 1.8438568 -1.4947357 3.3385925 -3.3385773 3.3385925l0 0c-1.8438568 0 -3.3385773 -1.4947357 -3.3385773 -3.3385925z" fill-rule="evenodd"/><path fill="#434343" d="m211.3937 256.56824l0 0c0 -1.8438416 1.4947205 -3.3385773 3.3385773 -3.3385773l0 0c0.8854523 0 1.7346344 0.3517456 2.360733 0.97784424c0.62609863 0.6261139 0.97784424 1.475296 0.97784424 2.360733l0 0c0 1.8438416 -1.4947357 3.3385925 -3.3385773 3.3385925l0 0c-1.8438568 0 -3.3385773 -1.494751 -3.3385773 -3.3385925z" fill-rule="evenodd"/><path stroke="#434343" stroke-width="1.0" stroke-linejoin="round" stroke-linecap="butt" d="m211.3937 256.56824l0 0c0 -1.8438416 1.4947205 -3.3385773 3.3385773 -3.3385773l0 0c0.8854523 0 1.7346344 0.3517456 2.360733 0.97784424c0.62609863 0.6261139 0.97784424 1.475296 0.97784424 2.360733l0 0c0 1.8438416 -1.4947357 3.3385925 -3.3385773 3.3385925l0 0c-1.8438568 0 -3.3385773 -1.494751 -3.3385773 -3.3385925z" fill-rule="evenodd"/><path fill="#666666" d="m211.3937 267.72046l0 0c0 -1.8438416 1.4947205 -3.338562 3.3385773 -3.338562l0 0c0.8854523 0 1.7346344 0.3517456 2.360733 0.97784424c0.62609863 0.62609863 0.97784424 1.4752808 0.97784424 2.3607178l0 0c0 1.8438721 -1.4947357 3.3385925 -3.3385773 3.3385925l0 0c-1.8438568 0 -3.3385773 -1.4947205 -3.3385773 -3.3385925z" fill-rule="evenodd"/><path stroke="#666666" stroke-width="1.0" stroke-linejoin="round" stroke-linecap="butt" d="m211.3937 267.72046l0 0c0 -1.8438416 1.4947205 -3.338562 3.3385773 -3.338562l0 0c0.8854523 0 1.7346344 0.3517456 2.360733 0.97784424c0.62609863 0.62609863 0.97784424 1.4752808 0.97784424 2.3607178l0 0c0 1.8438721 -1.4947357 3.3385925 -3.3385773 3.3385925l0 0c-1.8438568 0 -3.3385773 -1.4947205 -3.3385773 -3.3385925z" fill-rule="evenodd"/><path fill="#000000" d="m386.6509 244.29134l0 0c0 -1.8438416 1.494751 -3.3385773 3.3385925 -3.3385773l0 0c0.885437 0 1.7346191 0.3517456 2.3607483 0.97784424c0.62609863 0.6261139 0.97784424 1.4752808 0.97784424 2.360733l0 0c0 1.8438568 -1.494751 3.3385925 -3.3385925 3.3385925l0 0c-1.8438416 0 -3.3385925 -1.4947357 -3.3385925 -3.3385925z" fill-rule="evenodd"/><path stroke="#595959" stroke-width="1.0" stroke-linejoin="round" stroke-linecap="butt" d="m386.6509 244.29134l0 0c0 -1.8438416 1.494751 -3.3385773 3.3385925 -3.3385773l0 0c0.885437 0 1.7346191 0.3517456 2.3607483 0.97784424c0.62609863 0.6261139 0.97784424 1.4752808 0.97784424 2.360733l0 0c0 1.8438568 -1.494751 3.3385925 -3.3385925 3.3385925l0 0c-1.8438416 0 -3.3385925 -1.4947357 -3.3385925 -3.3385925z" fill-rule="evenodd"/><path fill="#434343" d="m386.6509 256.56824l0 0c0 -1.8438416 1.494751 -3.3385773 3.3385925 -3.3385773l0 0c0.885437 0 1.7346191 0.3517456 2.3607483 0.97784424c0.62609863 0.6261139 0.97784424 1.475296 0.97784424 2.360733l0 0c0 1.8438416 -1.494751 3.3385925 -3.3385925 3.3385925l0 0c-1.8438416 0 -3.3385925 -1.494751 -3.3385925 -3.3385925z" fill-rule="evenodd"/><path stroke="#434343" stroke-width="1.0" stroke-linejoin="round" stroke-linecap="butt" d="m386.6509 256.56824l0 0c0 -1.8438416 1.494751 -3.3385773 3.3385925 -3.3385773l0 0c0.885437 0 1.7346191 0.3517456 2.3607483 0.97784424c0.62609863 0.6261139 0.97784424 1.475296 0.97784424 2.360733l0 0c0 1.8438416 -1.494751 3.3385925 -3.3385925 3.3385925l0 0c-1.8438416 0 -3.3385925 -1.494751 -3.3385925 -3.3385925z" fill-rule="evenodd"/><path fill="#666666" d="m386.6509 267.72046l0 0c0 -1.8438416 1.494751 -3.338562 3.3385925 -3.338562l0 0c0.885437 0 1.7346191 0.3517456 2.3607483 0.97784424c0.62609863 0.62609863 0.97784424 1.4752808 0.97784424 2.3607178l0 0c0 1.8438721 -1.494751 3.3385925 -3.3385925 3.3385925l0 0c-1.8438416 0 -3.3385925 -1.4947205 -3.3385925 -3.3385925z" fill-rule="evenodd"/><path stroke="#666666" stroke-width="1.0" stroke-linejoin="round" stroke-linecap="butt" d="m386.6509 267.72046l0 0c0 -1.8438416 1.494751 -3.338562 3.3385925 -3.338562l0 0c0.885437 0 1.7346191 0.3517456 2.3607483 0.97784424c0.62609863 0.62609863 0.97784424 1.4752808 0.97784424 2.3607178l0 0c0 1.8438721 -1.494751 3.3385925 -3.3385925 3.3385925l0 0c-1.8438416 0 -3.3385925 -1.4947205 -3.3385925 -3.3385925z" fill-rule="evenodd"/><path fill="#000000" d="m561.9147 153.44882l0 0c0 -1.8438568 1.494751 -3.3385925 3.338623 -3.3385925l0 0c0.885437 0 1.7346191 0.3517456 2.3607178 0.9778595c0.62609863 0.62609863 0.97784424 1.4752808 0.97784424 2.360733l0 0c0 1.8438416 -1.494751 3.3385773 -3.338562 3.3385773l0 0c-1.8438721 0 -3.338623 -1.4947357 -3.338623 -3.3385773z" fill-rule="evenodd"/><path stroke="#595959" stroke-width="1.0" stroke-linejoin="round" stroke-linecap="butt" d="m561.9147 153.44882l0 0c0 -1.8438568 1.494751 -3.3385925 3.338623 -3.3385925l0 0c0.885437 0 1.7346191 0.3517456 2.3607178 0.9778595c0.62609863 0.62609863 0.97784424 1.4752808 0.97784424 2.360733l0 0c0 1.8438416 -1.494751 3.3385773 -3.338562 3.3385773l0 0c-1.8438721 0 -3.338623 -1.4947357 -3.338623 -3.3385773z" fill-rule="evenodd"/><path fill="#434343" d="m561.9147 165.72572l0 0c0 -1.8438568 1.494751 -3.3385773 3.338623 -3.3385773l0 0c0.885437 0 1.7346191 0.35173035 2.3607178 0.97784424c0.62609863 0.62609863 0.97784424 1.4752808 0.97784424 2.360733l0 0c0 1.8438416 -1.494751 3.3385773 -3.338562 3.3385773l0 0c-1.8438721 0 -3.338623 -1.4947357 -3.338623 -3.3385773z" fill-rule="evenodd"/><path stroke="#434343" stroke-width="1.0" stroke-linejoin="round" stroke-linecap="butt" d="m561.9147 165.72572l0 0c0 -1.8438568 1.494751 -3.3385773 3.338623 -3.3385773l0 0c0.885437 0 1.7346191 0.35173035 2.3607178 0.97784424c0.62609863 0.62609863 0.97784424 1.4752808 0.97784424 2.360733l0 0c0 1.8438416 -1.494751 3.3385773 -3.338562 3.3385773l0 0c-1.8438721 0 -3.338623 -1.4947357 -3.338623 -3.3385773z" fill-rule="evenodd"/><path fill="#666666" d="m561.9147 176.87796l0 0c0 -1.8438568 1.494751 -3.3385925 3.338623 -3.3385925l0 0c0.885437 0 1.7346191 0.3517456 2.3607178 0.97784424c0.62609863 0.6261139 0.97784424 1.475296 0.97784424 2.3607483l0 0c0 1.8438416 -1.494751 3.3385773 -3.338562 3.3385773l0 0c-1.8438721 0 -3.338623 -1.4947357 -3.338623 -3.3385773z" fill-rule="evenodd"/><path stroke="#666666" stroke-width="1.0" stroke-linejoin="round" stroke-linecap="butt" d="m561.9147 176.87796l0 0c0 -1.8438568 1.494751 -3.3385925 3.338623 -3.3385925l0 0c0.885437 0 1.7346191 0.3517456 2.3607178 0.97784424c0.62609863 0.6261139 0.97784424 1.475296 0.97784424 2.3607483l0 0c0 1.8438416 -1.494751 3.3385773 -3.338562 3.3385773l0 0c-1.8438721 0 -3.338623 -1.4947357 -3.338623 -3.3385773z" fill-rule="evenodd"/><path fill="#000000" d="m273.35828 318.8084l0 0c0 -1.8438721 1.4947205 -3.3385925 3.338562 -3.3385925l0 0c0.8854675 0 1.7346497 0.3517456 2.3607483 0.97784424c0.62609863 0.62609863 0.97784424 1.4752808 0.97784424 2.3607483l0 0c0 1.8438416 -1.4947205 3.338562 -3.3385925 3.338562l0 0c-1.8438416 0 -3.338562 -1.4947205 -3.338562 -3.338562z" fill-rule="evenodd"/><path stroke="#595959" stroke-width="1.0" stroke-linejoin="round" stroke-linecap="butt" d="m273.35828 318.8084l0 0c0 -1.8438721 1.4947205 -3.3385925 3.338562 -3.3385925l0 0c0.8854675 0 1.7346497 0.3517456 2.3607483 0.97784424c0.62609863 0.62609863 0.97784424 1.4752808 0.97784424 2.3607483l0 0c0 1.8438416 -1.4947205 3.338562 -3.3385925 3.338562l0 0c-1.8438416 0 -3.338562 -1.4947205 -3.338562 -3.338562z" fill-rule="evenodd"/><path fill="#434343" d="m290.47113 318.8084l0 0c0 -1.8438721 1.4947205 -3.3385925 3.3385925 -3.3385925l0 0c0.885437 0 1.7346191 0.3517456 2.3607178 0.97784424c0.62609863 0.62609863 0.97784424 1.4752808 0.97784424 2.3607483l0 0c0 1.8438416 -1.4947205 3.338562 -3.338562 3.338562l0 0c-1.8438721 0 -3.3385925 -1.4947205 -3.3385925 -3.338562z" fill-rule="evenodd"/><path stroke="#434343" stroke-width="1.0" stroke-linejoin="round" stroke-linecap="butt" d="m290.47113 318.8084l0 0c0 -1.8438721 1.4947205 -3.3385925 3.3385925 -3.3385925l0 0c0.885437 0 1.7346191 0.3517456 2.3607178 0.97784424c0.62609863 0.62609863 0.97784424 1.4752808 0.97784424 2.3607483l0 0c0 1.8438416 -1.4947205 3.338562 -3.338562 3.338562l0 0c-1.8438721 0 -3.3385925 -1.4947205 -3.3385925 -3.338562z" fill-rule="evenodd"/><path fill="#666666" d="m307.5853 318.8084l0 0c0 -1.8438721 1.494751 -3.3385925 3.3385925 -3.3385925l0 0c0.885437 0 1.7346191 0.3517456 2.3607178 0.97784424c0.62612915 0.62609863 0.97787476 1.4752808 0.97787476 2.3607483l0 0c0 1.8438416 -1.494751 3.338562 -3.3385925 3.338562l0 0c-1.8438416 0 -3.3385925 -1.4947205 -3.3385925 -3.338562z" fill-rule="evenodd"/><path stroke="#666666" stroke-width="1.0" stroke-linejoin="round" stroke-linecap="butt" d="m307.5853 318.8084l0 0c0 -1.8438721 1.494751 -3.3385925 3.3385925 -3.3385925l0 0c0.885437 0 1.7346191 0.3517456 2.3607178 0.97784424c0.62612915 0.62609863 0.97787476 1.4752808 0.97787476 2.3607483l0 0c0 1.8438416 -1.494751 3.338562 -3.3385925 3.338562l0 0c-1.8438416 0 -3.3385925 -1.4947205 -3.3385925 -3.338562z" fill-rule="evenodd"/><path fill="#999999" d="m324.69684 318.8084l0 0c0 -1.8438721 1.494751 -3.3385925 3.3385925 -3.3385925l0 0c0.885437 0 1.7346191 0.3517456 2.3607483 0.97784424c0.62609863 0.62609863 0.97784424 1.4752808 0.97784424 2.3607483l0 0c0 1.8438416 -1.494751 3.338562 -3.3385925 3.338562l0 0c-1.8438416 0 -3.3385925 -1.4947205 -3.3385925 -3.338562z" fill-rule="evenodd"/><path stroke="#999999" stroke-width="1.0" stroke-linejoin="round" stroke-linecap="butt" d="m324.69684 318.8084l0 0c0 -1.8438721 1.494751 -3.3385925 3.3385925 -3.3385925l0 0c0.885437 0 1.7346191 0.3517456 2.3607483 0.97784424c0.62609863 0.62609863 0.97784424 1.4752808 0.97784424 2.3607483l0 0c0 1.8438416 -1.494751 3.338562 -3.3385925 3.338562l0 0c-1.8438416 0 -3.3385925 -1.4947205 -3.3385925 -3.338562z" fill-rule="evenodd"/></g></svg>